# xmcd
#
# Track frame offsets:
#	150
#	13984
#	25590
#	40037
#	50703
#	61096
#	71525
#	84834
#	92454
#	103816
#	116393
#	129822
#	138502
#	150866
#	165070
#	179479
#	188137
#	200853
#	213318
#	224871
#	238652
#	248988
#	261957
#	276638
#	289621
#	304622
#
# Disc length: 4195 seconds
#
# Revision: 1
# Processed by: cddbd v1.5.2PL0 Copyright (c) Steve Scherf et al.
# Submitted via: audiograbber 1.83.01
#
DISCID=7110611a
DTITLE=Slim Dusty - Odds and Sods CD2 1961-1964
DYEAR=1900
DGENRE=Country
TTITLE0=The Happiest Days Of All
TTITLE1=I Want A Pardon For Daddy
TTITLE2=Mother, The Queen Of My Heart
TTITLE3=Highway Blues
TTITLE4=Grasshopper Loose In Queensland
TTITLE5=Leaning Post
TTITLE6=Return Of The Stockman
TTITLE7=Sweet Talking Girl
TTITLE8=The Arajoel Waltz
TTITLE9=The Rose In Her Hair
TTITLE10=The Train Whistle Blues
TTITLE11=Lonely, Lonesome Blues
TTITLE12=Never Mind
TTITLE13=Road Trains
TTITLE14=Don't Fool Around Anymore
TTITLE15=The Ace Of Hearts
TTITLE16=This Chap Knows A Lot
TTITLE17=Where The Golden Sliprtails Are Down
TTITLE18=Life Is Like A River
TTITLE19=Just Going Home
TTITLE20=Don't Laugh In The Face Of Father Time
TTITLE21=The Faded Coat Of Blue
TTITLE22=Way Out There
TTITLE23=Wild Rugged Land That I Love
TTITLE24=Pay Day At The Pub
TTITLE25=Maple Suger Sweetheart
EXTD=
EXTT0=
EXTT1=
EXTT2=
EXTT3=
EXTT4=
EXTT5=
EXTT6=
EXTT7=
EXTT8=
EXTT9=
EXTT10=
EXTT11=
EXTT12=
EXTT13=
EXTT14=
EXTT15=
EXTT16=
EXTT17=
EXTT18=
EXTT19=
EXTT20=
EXTT21=
EXTT22=
EXTT23=
EXTT24=
EXTT25=
PLAYORDER=
